<?xml version="1.0" encoding="UTF-8" standalone="no"?><!DOCTYPE svg PUBLIC "-//W3C//DTD SVG 1.1//EN" "http://www.w3.org/Graphics/SVG/1.1/DTD/svg11.dtd"><svg width="100%" height="100%" viewBox="0 0 824 438" version="1.1" xmlns="http://www.w3.org/2000/svg" xmlns:xlink="http://www.w3.org/1999/xlink" xml:space="preserve" xmlns:serif="http://www.serif.com/" style="fill-rule:evenodd;clip-rule:evenodd;stroke-linecap:round;stroke-linejoin:round;stroke-miterlimit:1.5;"><path d="M448.758,399.819c0,11.208 -3.065,20.039 -9.196,26.493c-6.13,6.454 -14.799,9.681 -26.007,9.681c-11.127,0 -19.776,-3.227 -25.946,-9.681c-6.171,-6.454 -9.256,-15.285 -9.256,-26.493c0,-11.329 3.085,-20.201 9.256,-26.614c6.17,-6.413 14.819,-9.62 25.946,-9.62c11.168,0 19.827,3.227 25.977,9.681c6.15,6.454 9.226,15.305 9.226,26.553Zm185.722,-16.205l-1.821,0l0,-16.448c2.104,-0.607 5.503,-1.325 10.196,-2.154c4.694,-0.83 9.428,-1.245 14.203,-1.245c11.734,0 20.281,1.953 25.643,5.857c5.361,3.905 8.041,9.863 8.041,17.874l0,46.37l-21.121,0l0,-7.222c-1.457,1.214 -2.761,2.306 -3.915,3.277c-1.153,0.971 -2.7,1.942 -4.643,2.913c-1.901,0.931 -3.753,1.639 -5.553,2.125c-1.801,0.485 -4.319,0.728 -7.556,0.728c-6.029,0 -11.037,-2.023 -15.022,-6.069c-3.986,-4.047 -5.978,-9.145 -5.978,-15.295c0,-5.058 1.011,-9.145 3.034,-12.26c2.023,-3.116 4.937,-5.584 8.74,-7.405c3.844,-1.861 8.437,-3.156 13.778,-3.884c5.341,-0.728 11.086,-1.295 17.237,-1.7l0,-0.364c0,-3.763 -1.386,-6.362 -4.158,-7.799c-2.772,-1.436 -6.929,-2.154 -12.473,-2.154c-2.508,0 -5.442,0.455 -8.8,1.365c-3.358,0.911 -6.636,2.074 -9.832,3.49Zm-496.23,0l-1.821,0l0,-16.448c2.104,-0.607 5.503,-1.325 10.196,-2.154c4.694,-0.83 9.428,-1.245 14.203,-1.245c11.734,0 20.281,1.953 25.643,5.857c5.361,3.905 8.042,9.863 8.042,17.874l0,46.37l-21.122,0l0,-7.222c-1.456,1.214 -2.761,2.306 -3.915,3.277c-1.153,0.971 -2.7,1.942 -4.643,2.913c-1.901,0.931 -3.752,1.639 -5.553,2.125c-1.801,0.485 -4.319,0.728 -7.556,0.728c-6.029,0 -11.036,-2.023 -15.022,-6.069c-3.986,-4.047 -5.978,-9.145 -5.978,-15.295c0,-5.058 1.011,-9.145 3.034,-12.26c2.023,-3.116 4.937,-5.584 8.74,-7.405c3.844,-1.861 8.437,-3.156 13.778,-3.884c5.341,-0.728 11.086,-1.295 17.237,-1.7l0,-0.364c0,-3.763 -1.386,-6.362 -4.158,-7.799c-2.772,-1.436 -6.929,-2.154 -12.472,-2.154c-2.509,0 -5.443,0.455 -8.801,1.365c-3.358,0.911 -6.636,2.074 -9.832,3.49Zm594.31,51.59c-8.659,0 -14.961,-1.781 -18.906,-5.342c-3.945,-3.56 -5.917,-9.387 -5.917,-17.479l0,-31.864l-8.133,0l0,-14.81l8.133,0l0,-19.482l21.242,0l0,19.482l20.454,0l0,14.81l-20.454,0l0,24.156c0,2.387 0.021,4.471 0.061,6.251c0.041,1.78 0.364,3.379 0.971,4.795c0.567,1.416 1.568,2.539 3.004,3.368c1.437,0.83 3.531,1.245 6.282,1.245c1.133,0 2.62,-0.243 4.461,-0.729c1.841,-0.485 3.126,-0.93 3.854,-1.335l1.821,0l0,14.991c-2.306,0.607 -4.754,1.083 -7.344,1.427c-2.589,0.344 -5.766,0.516 -9.529,0.516Zm-458.721,0c-8.659,0 -14.961,-1.781 -18.906,-5.342c-3.945,-3.56 -5.918,-9.387 -5.918,-17.479l0,-31.864l-8.133,0l0,-14.81l8.133,0l0,-19.482l21.243,0l0,19.482l20.454,0l0,14.81l-20.454,0l0,24.156c0,2.387 0.02,4.471 0.061,6.251c0.04,1.78 0.364,3.379 0.971,4.795c0.566,1.416 1.568,2.539 3.004,3.368c1.437,0.83 3.53,1.245 6.282,1.245c1.133,0 2.62,-0.243 4.461,-0.729c1.841,-0.485 3.126,-0.93 3.854,-1.335l1.821,0l0,14.991c-2.307,0.607 -4.755,1.083 -7.344,1.427c-2.59,0.344 -5.766,0.516 -9.529,0.516Zm505.516,-1.336l-21.243,0l0,-94.439l21.243,0l0,33.806c3.48,-2.953 6.868,-5.26 10.166,-6.919c3.298,-1.659 6.95,-2.488 10.955,-2.488c6.96,0 12.281,2.195 15.963,6.585c3.682,4.39 5.523,10.753 5.523,19.088l0,44.367l-21.364,0l0,-33.806c0,-2.751 -0.112,-5.493 -0.334,-8.224c-0.223,-2.731 -0.637,-4.744 -1.244,-6.039c-0.729,-1.538 -1.781,-2.64 -3.156,-3.308c-1.376,-0.667 -3.217,-1.001 -5.524,-1.001c-1.739,0 -3.5,0.323 -5.28,0.971c-1.78,0.647 -3.682,1.679 -5.705,3.095l0,48.312Zm-729.839,0l-24.885,0l-22.881,-90.372l23.549,0l12.442,60.632l15.174,-60.632l22.517,0l14.384,60.632l13.11,-60.632l22.942,0l-22.881,90.372l-24.885,0l-14.505,-55.898l-14.081,55.898Zm524.756,0l-22.7,0l0,-90.372l35.081,0c5.22,0 9.721,0.475 13.504,1.426c3.784,0.951 7.213,2.458 10.288,4.522c3.399,2.266 6.029,5.29 7.89,9.073c1.861,3.784 2.792,8.285 2.792,13.505c0,4.208 -0.668,8.213 -2.003,12.017c-1.335,3.803 -3.257,6.98 -5.766,9.529c-1.537,1.578 -3.227,3.034 -5.068,4.37c-1.841,1.335 -3.874,2.468 -6.099,3.399c-2.226,0.93 -4.643,1.659 -7.253,2.185c-2.61,0.526 -5.533,0.789 -8.77,0.789l-11.896,0l0,29.557Zm-342.797,0l-21.243,0l0,-68.159l21.243,0l0,68.159Zm249.814,0l-21.242,0l0,-68.159l21.242,0l0,9.772c0.971,-0.89 2.317,-2.013 4.036,-3.368c1.72,-1.356 3.288,-2.438 4.704,-3.247c1.538,-0.931 3.328,-1.73 5.371,-2.398c2.044,-0.667 3.976,-1.001 5.797,-1.001c0.688,0 1.456,0.02 2.306,0.06c0.85,0.041 1.619,0.102 2.306,0.182l0,20.09l-1.76,0c-0.809,-0.283 -1.982,-0.496 -3.52,-0.637c-1.537,-0.142 -3.237,-0.213 -5.098,-0.213c-2.226,0 -4.562,0.324 -7.01,0.971c-2.448,0.648 -4.825,1.417 -7.132,2.307l0,45.641Zm-122.601,0l-21.242,0l0,-53.349l-8.497,0l0,-14.81l8.497,0l0,-1.881c0,-8.335 2.185,-14.587 6.555,-18.754c4.37,-4.168 10.985,-6.252 19.846,-6.252c3.075,0 5.948,0.112 8.619,0.334c2.67,0.223 4.977,0.516 6.919,0.88l0,15.416l-1.639,0c-0.809,-0.242 -2.074,-0.556 -3.793,-0.94c-1.72,-0.385 -3.348,-0.577 -4.886,-0.577c-4.289,0 -7.212,0.789 -8.77,2.367c-1.558,1.578 -2.337,4.532 -2.337,8.861l0,0.546l16.873,0l0,14.81l-16.145,0l0,53.349Zm310.933,-17.783l0,-14.202c-3.601,0.364 -6.514,0.678 -8.74,0.941c-2.225,0.263 -4.41,0.778 -6.555,1.547c-1.861,0.648 -3.307,1.629 -4.339,2.944c-1.032,1.315 -1.548,3.065 -1.548,5.25c0,3.196 0.86,5.391 2.58,6.585c1.719,1.194 4.258,1.791 7.617,1.791c1.861,0 3.763,-0.425 5.705,-1.275c1.942,-0.85 3.702,-2.043 5.28,-3.581Zm-496.23,0l0,-14.202c-3.601,0.364 -6.514,0.678 -8.74,0.941c-2.225,0.263 -4.41,0.778 -6.555,1.547c-1.861,0.648 -3.307,1.629 -4.339,2.944c-1.032,1.315 -1.548,3.065 -1.548,5.25c0,3.196 0.86,5.391 2.58,6.585c1.719,1.194 4.258,1.791 7.617,1.791c1.861,0 3.763,-0.425 5.705,-1.275c1.942,-0.85 3.702,-2.043 5.28,-3.581Zm253.578,-16.144c0,-4.047 -0.334,-7.415 -1.002,-10.106c-0.668,-2.691 -1.588,-4.845 -2.761,-6.464c-1.255,-1.699 -2.671,-2.883 -4.249,-3.55c-1.578,-0.668 -3.379,-1.002 -5.402,-1.002c-1.901,0 -3.621,0.294 -5.159,0.88c-1.537,0.587 -2.953,1.71 -4.248,3.369c-1.214,1.578 -2.185,3.743 -2.913,6.494c-0.729,2.751 -1.093,6.211 -1.093,10.379c0,4.167 0.344,7.536 1.032,10.105c0.688,2.569 1.578,4.623 2.67,6.16c1.133,1.578 2.549,2.732 4.249,3.46c1.699,0.728 3.581,1.092 5.644,1.092c1.7,0 3.43,-0.364 5.19,-1.092c1.76,-0.728 3.166,-1.821 4.218,-3.277c1.254,-1.74 2.205,-3.834 2.852,-6.282c0.648,-2.448 0.972,-5.837 0.972,-10.166Zm170.852,-27.373c0,-2.549 -0.607,-4.744 -1.821,-6.585c-1.214,-1.841 -2.671,-3.106 -4.37,-3.794c-2.145,-0.93 -4.198,-1.467 -6.16,-1.608c-1.963,-0.142 -4.623,-0.213 -7.982,-0.213l-3.216,0l0,27.07l1.578,0c2.144,0 4.167,-0.02 6.069,-0.061c1.902,-0.04 3.561,-0.182 4.977,-0.425c1.214,-0.202 2.498,-0.597 3.854,-1.183c1.355,-0.587 2.397,-1.245 3.126,-1.973c1.537,-1.497 2.579,-3.055 3.125,-4.673c0.547,-1.619 0.82,-3.804 0.82,-6.555Zm-365.739,-16.569l-22.457,0l0,-16.57l22.457,0l0,16.57Zm-6.358,-138.968c-1.361,4.083 -5.182,6.837 -9.487,6.837c-15.672,0 -53.075,0 -73.438,0c-3.204,0 -6.213,-1.534 -8.094,-4.127c-1.882,-2.593 -2.407,-5.93 -1.413,-8.976c13.534,-41.463 55.129,-168.903 65.279,-200c1.343,-4.113 5.179,-6.897 9.506,-6.897c15.919,0 54.134,0 74.827,0c3.214,0 6.233,1.545 8.112,4.153c1.88,2.608 2.391,5.96 1.375,9.01c-13.851,41.552 -56.341,169.021 -66.667,200Zm437.918,-60c-1.361,4.083 -5.182,6.837 -9.487,6.837c-16.327,0 -56.363,0 -77.621,0c-3.203,0 -6.213,-1.534 -8.094,-4.127c-1.881,-2.593 -2.406,-5.93 -1.412,-8.976c7.014,-21.492 20.723,-63.493 26.111,-80c1.343,-4.113 5.179,-6.897 9.507,-6.897c16.441,0 56.769,0 78.176,0c3.214,0 6.233,1.545 8.112,4.153c1.88,2.608 2.391,5.96 1.375,9.01c-7.179,21.535 -21.183,63.549 -26.667,80Zm-139.306,0c-1.361,4.083 -5.182,6.837 -9.487,6.837c-16.327,0 -56.363,0 -77.621,0c-3.203,0 -6.213,-1.534 -8.094,-4.127c-1.881,-2.593 -2.406,-5.93 -1.412,-8.976c7.014,-21.492 20.723,-63.493 26.111,-80c1.343,-4.113 5.179,-6.897 9.507,-6.897c16.441,0 56.769,0 78.176,0c3.214,0 6.233,1.545 8.112,4.153c1.88,2.608 2.391,5.96 1.375,9.01c-7.179,21.535 -21.183,63.549 -26.667,80Zm-139.306,0c-1.361,4.083 -5.182,6.837 -9.487,6.837c-16.327,0 -56.363,0 -77.621,0c-3.203,0 -6.213,-1.534 -8.094,-4.127c-1.881,-2.593 -2.406,-5.93 -1.412,-8.976c7.014,-21.492 20.723,-63.493 26.111,-80c1.343,-4.113 5.179,-6.897 9.507,-6.897c16.441,0 56.769,0 78.176,0c3.214,0 6.233,1.545 8.112,4.153c1.88,2.608 2.391,5.96 1.375,9.01c-7.179,21.535 -21.183,63.549 -26.667,80Z" style="fill:none;stroke:#238ed8;stroke-width:3.5px;"/><path d="M448.758,399.819c0,11.208 -3.065,20.039 -9.196,26.493c-6.13,6.454 -14.799,9.681 -26.007,9.681c-11.127,0 -19.776,-3.227 -25.946,-9.681c-6.171,-6.454 -9.256,-15.285 -9.256,-26.493c0,-11.329 3.085,-20.201 9.256,-26.614c6.17,-6.413 14.819,-9.62 25.946,-9.62c11.168,0 19.827,3.227 25.977,9.681c6.15,6.454 9.226,15.305 9.226,26.553Zm185.722,-16.205l-1.821,0l0,-16.448c2.104,-0.607 5.503,-1.325 10.196,-2.154c4.694,-0.83 9.428,-1.245 14.203,-1.245c11.734,0 20.281,1.953 25.643,5.857c5.361,3.905 8.041,9.863 8.041,17.874l0,46.37l-21.121,0l0,-7.222c-1.457,1.214 -2.761,2.306 -3.915,3.277c-1.153,0.971 -2.7,1.942 -4.643,2.913c-1.901,0.931 -3.753,1.639 -5.553,2.125c-1.801,0.485 -4.319,0.728 -7.556,0.728c-6.029,0 -11.037,-2.023 -15.022,-6.069c-3.986,-4.047 -5.978,-9.145 -5.978,-15.295c0,-5.058 1.011,-9.145 3.034,-12.26c2.023,-3.116 4.937,-5.584 8.74,-7.405c3.844,-1.861 8.437,-3.156 13.778,-3.884c5.341,-0.728 11.086,-1.295 17.237,-1.7l0,-0.364c0,-3.763 -1.386,-6.362 -4.158,-7.799c-2.772,-1.436 -6.929,-2.154 -12.473,-2.154c-2.508,0 -5.442,0.455 -8.8,1.365c-3.358,0.911 -6.636,2.074 -9.832,3.49Zm-496.23,0l-1.821,0l0,-16.448c2.104,-0.607 5.503,-1.325 10.196,-2.154c4.694,-0.83 9.428,-1.245 14.203,-1.245c11.734,0 20.281,1.953 25.643,5.857c5.361,3.905 8.042,9.863 8.042,17.874l0,46.37l-21.122,0l0,-7.222c-1.456,1.214 -2.761,2.306 -3.915,3.277c-1.153,0.971 -2.7,1.942 -4.643,2.913c-1.901,0.931 -3.752,1.639 -5.553,2.125c-1.801,0.485 -4.319,0.728 -7.556,0.728c-6.029,0 -11.036,-2.023 -15.022,-6.069c-3.986,-4.047 -5.978,-9.145 -5.978,-15.295c0,-5.058 1.011,-9.145 3.034,-12.26c2.023,-3.116 4.937,-5.584 8.74,-7.405c3.844,-1.861 8.437,-3.156 13.778,-3.884c5.341,-0.728 11.086,-1.295 17.237,-1.7l0,-0.364c0,-3.763 -1.386,-6.362 -4.158,-7.799c-2.772,-1.436 -6.929,-2.154 -12.472,-2.154c-2.509,0 -5.443,0.455 -8.801,1.365c-3.358,0.911 -6.636,2.074 -9.832,3.49Zm594.31,51.59c-8.659,0 -14.961,-1.781 -18.906,-5.342c-3.945,-3.56 -5.917,-9.387 -5.917,-17.479l0,-31.864l-8.133,0l0,-14.81l8.133,0l0,-19.482l21.242,0l0,19.482l20.454,0l0,14.81l-20.454,0l0,24.156c0,2.387 0.021,4.471 0.061,6.251c0.041,1.78 0.364,3.379 0.971,4.795c0.567,1.416 1.568,2.539 3.004,3.368c1.437,0.83 3.531,1.245 6.282,1.245c1.133,0 2.62,-0.243 4.461,-0.729c1.841,-0.485 3.126,-0.93 3.854,-1.335l1.821,0l0,14.991c-2.306,0.607 -4.754,1.083 -7.344,1.427c-2.589,0.344 -5.766,0.516 -9.529,0.516Zm-458.721,0c-8.659,0 -14.961,-1.781 -18.906,-5.342c-3.945,-3.56 -5.918,-9.387 -5.918,-17.479l0,-31.864l-8.133,0l0,-14.81l8.133,0l0,-19.482l21.243,0l0,19.482l20.454,0l0,14.81l-20.454,0l0,24.156c0,2.387 0.02,4.471 0.061,6.251c0.04,1.78 0.364,3.379 0.971,4.795c0.566,1.416 1.568,2.539 3.004,3.368c1.437,0.83 3.53,1.245 6.282,1.245c1.133,0 2.62,-0.243 4.461,-0.729c1.841,-0.485 3.126,-0.93 3.854,-1.335l1.821,0l0,14.991c-2.307,0.607 -4.755,1.083 -7.344,1.427c-2.59,0.344 -5.766,0.516 -9.529,0.516Zm505.516,-1.336l-21.243,0l0,-94.439l21.243,0l0,33.806c3.48,-2.953 6.868,-5.26 10.166,-6.919c3.298,-1.659 6.95,-2.488 10.955,-2.488c6.96,0 12.281,2.195 15.963,6.585c3.682,4.39 5.523,10.753 5.523,19.088l0,44.367l-21.364,0l0,-33.806c0,-2.751 -0.112,-5.493 -0.334,-8.224c-0.223,-2.731 -0.637,-4.744 -1.244,-6.039c-0.729,-1.538 -1.781,-2.64 -3.156,-3.308c-1.376,-0.667 -3.217,-1.001 -5.524,-1.001c-1.739,0 -3.5,0.323 -5.28,0.971c-1.78,0.647 -3.682,1.679 -5.705,3.095l0,48.312Zm-729.839,0l-24.885,0l-22.881,-90.372l23.549,0l12.442,60.632l15.174,-60.632l22.517,0l14.384,60.632l13.11,-60.632l22.942,0l-22.881,90.372l-24.885,0l-14.505,-55.898l-14.081,55.898Zm524.756,0l-22.7,0l0,-90.372l35.081,0c5.22,0 9.721,0.475 13.504,1.426c3.784,0.951 7.213,2.458 10.288,4.522c3.399,2.266 6.029,5.29 7.89,9.073c1.861,3.784 2.792,8.285 2.792,13.505c0,4.208 -0.668,8.213 -2.003,12.017c-1.335,3.803 -3.257,6.98 -5.766,9.529c-1.537,1.578 -3.227,3.034 -5.068,4.37c-1.841,1.335 -3.874,2.468 -6.099,3.399c-2.226,0.93 -4.643,1.659 -7.253,2.185c-2.61,0.526 -5.533,0.789 -8.77,0.789l-11.896,0l0,29.557Zm-342.797,0l-21.243,0l0,-68.159l21.243,0l0,68.159Zm249.814,0l-21.242,0l0,-68.159l21.242,0l0,9.772c0.971,-0.89 2.317,-2.013 4.036,-3.368c1.72,-1.356 3.288,-2.438 4.704,-3.247c1.538,-0.931 3.328,-1.73 5.371,-2.398c2.044,-0.667 3.976,-1.001 5.797,-1.001c0.688,0 1.456,0.02 2.306,0.06c0.85,0.041 1.619,0.102 2.306,0.182l0,20.09l-1.76,0c-0.809,-0.283 -1.982,-0.496 -3.52,-0.637c-1.537,-0.142 -3.237,-0.213 -5.098,-0.213c-2.226,0 -4.562,0.324 -7.01,0.971c-2.448,0.648 -4.825,1.417 -7.132,2.307l0,45.641Zm-122.601,0l-21.242,0l0,-53.349l-8.497,0l0,-14.81l8.497,0l0,-1.881c0,-8.335 2.185,-14.587 6.555,-18.754c4.37,-4.168 10.985,-6.252 19.846,-6.252c3.075,0 5.948,0.112 8.619,0.334c2.67,0.223 4.977,0.516 6.919,0.88l0,15.416l-1.639,0c-0.809,-0.242 -2.074,-0.556 -3.793,-0.94c-1.72,-0.385 -3.348,-0.577 -4.886,-0.577c-4.289,0 -7.212,0.789 -8.77,2.367c-1.558,1.578 -2.337,4.532 -2.337,8.861l0,0.546l16.873,0l0,14.81l-16.145,0l0,53.349Zm310.933,-17.783l0,-14.202c-3.601,0.364 -6.514,0.678 -8.74,0.941c-2.225,0.263 -4.41,0.778 -6.555,1.547c-1.861,0.648 -3.307,1.629 -4.339,2.944c-1.032,1.315 -1.548,3.065 -1.548,5.25c0,3.196 0.86,5.391 2.58,6.585c1.719,1.194 4.258,1.791 7.617,1.791c1.861,0 3.763,-0.425 5.705,-1.275c1.942,-0.85 3.702,-2.043 5.28,-3.581Zm-496.23,0l0,-14.202c-3.601,0.364 -6.514,0.678 -8.74,0.941c-2.225,0.263 -4.41,0.778 -6.555,1.547c-1.861,0.648 -3.307,1.629 -4.339,2.944c-1.032,1.315 -1.548,3.065 -1.548,5.25c0,3.196 0.86,5.391 2.58,6.585c1.719,1.194 4.258,1.791 7.617,1.791c1.861,0 3.763,-0.425 5.705,-1.275c1.942,-0.85 3.702,-2.043 5.28,-3.581Zm253.578,-16.144c0,-4.047 -0.334,-7.415 -1.002,-10.106c-0.668,-2.691 -1.588,-4.845 -2.761,-6.464c-1.255,-1.699 -2.671,-2.883 -4.249,-3.55c-1.578,-0.668 -3.379,-1.002 -5.402,-1.002c-1.901,0 -3.621,0.294 -5.159,0.88c-1.537,0.587 -2.953,1.71 -4.248,3.369c-1.214,1.578 -2.185,3.743 -2.913,6.494c-0.729,2.751 -1.093,6.211 -1.093,10.379c0,4.167 0.344,7.536 1.032,10.105c0.688,2.569 1.578,4.623 2.67,6.16c1.133,1.578 2.549,2.732 4.249,3.46c1.699,0.728 3.581,1.092 5.644,1.092c1.7,0 3.43,-0.364 5.19,-1.092c1.76,-0.728 3.166,-1.821 4.218,-3.277c1.254,-1.74 2.205,-3.834 2.852,-6.282c0.648,-2.448 0.972,-5.837 0.972,-10.166Zm170.852,-27.373c0,-2.549 -0.607,-4.744 -1.821,-6.585c-1.214,-1.841 -2.671,-3.106 -4.37,-3.794c-2.145,-0.93 -4.198,-1.467 -6.16,-1.608c-1.963,-0.142 -4.623,-0.213 -7.982,-0.213l-3.216,0l0,27.07l1.578,0c2.144,0 4.167,-0.02 6.069,-0.061c1.902,-0.04 3.561,-0.182 4.977,-0.425c1.214,-0.202 2.498,-0.597 3.854,-1.183c1.355,-0.587 2.397,-1.245 3.126,-1.973c1.537,-1.497 2.579,-3.055 3.125,-4.673c0.547,-1.619 0.82,-3.804 0.82,-6.555Zm-365.739,-16.569l-22.457,0l0,-16.57l22.457,0l0,16.57Zm-6.358,-138.968c-1.361,4.083 -5.182,6.837 -9.487,6.837c-15.672,0 -53.075,0 -73.438,0c-3.204,0 -6.213,-1.534 -8.094,-4.127c-1.882,-2.593 -2.407,-5.93 -1.413,-8.976c13.534,-41.463 55.129,-168.903 65.279,-200c1.343,-4.113 5.179,-6.897 9.506,-6.897c15.919,0 54.134,0 74.827,0c3.214,0 6.233,1.545 8.112,4.153c1.88,2.608 2.391,5.96 1.375,9.01c-13.851,41.552 -56.341,169.021 -66.667,200Zm437.918,-60c-1.361,4.083 -5.182,6.837 -9.487,6.837c-16.327,0 -56.363,0 -77.621,0c-3.203,0 -6.213,-1.534 -8.094,-4.127c-1.881,-2.593 -2.406,-5.93 -1.412,-8.976c7.014,-21.492 20.723,-63.493 26.111,-80c1.343,-4.113 5.179,-6.897 9.507,-6.897c16.441,0 56.769,0 78.176,0c3.214,0 6.233,1.545 8.112,4.153c1.88,2.608 2.391,5.96 1.375,9.01c-7.179,21.535 -21.183,63.549 -26.667,80Zm-139.306,0c-1.361,4.083 -5.182,6.837 -9.487,6.837c-16.327,0 -56.363,0 -77.621,0c-3.203,0 -6.213,-1.534 -8.094,-4.127c-1.881,-2.593 -2.406,-5.93 -1.412,-8.976c7.014,-21.492 20.723,-63.493 26.111,-80c1.343,-4.113 5.179,-6.897 9.507,-6.897c16.441,0 56.769,0 78.176,0c3.214,0 6.233,1.545 8.112,4.153c1.88,2.608 2.391,5.96 1.375,9.01c-7.179,21.535 -21.183,63.549 -26.667,80Zm-139.306,0c-1.361,4.083 -5.182,6.837 -9.487,6.837c-16.327,0 -56.363,0 -77.621,0c-3.203,0 -6.213,-1.534 -8.094,-4.127c-1.881,-2.593 -2.406,-5.93 -1.412,-8.976c7.014,-21.492 20.723,-63.493 26.111,-80c1.343,-4.113 5.179,-6.897 9.507,-6.897c16.441,0 56.769,0 78.176,0c3.214,0 6.233,1.545 8.112,4.153c1.88,2.608 2.391,5.96 1.375,9.01c-7.179,21.535 -21.183,63.549 -26.667,80Z" style="fill:url(#_Radial1);"/><path d="M283.111,0.12c8.483,0.19 15.597,9.166 12.901,17.9c-21.747,66.944 -44.171,133.668 -66.775,200.327c-1.863,5.326 -7.067,9.184 -12.861,9.271c-24.53,0.122 -49.061,0 -73.592,0c-8.518,-0.065 -15.796,-8.949 -13.119,-17.82c21.304,-66.934 43.239,-133.668 65.385,-200.328c1.837,-5.356 7.134,-9.264 12.888,-9.351c25.057,-0.125 50.116,-0.19 75.173,0.001Z" style="fill:url(#_Radial2);"/><path d="M208.087,7.618c-2.61,0.013 -5.083,1.778 -5.931,4.251c-22.127,66.601 -44.042,133.275 -65.327,200.15c-1.11,3.679 1.737,8.006 5.876,8.098c24.552,0.188 49.108,0.369 73.659,0c2.552,-0.064 4.939,-1.801 5.782,-4.212c22.584,-66.601 44.988,-133.265 66.716,-200.15c1.145,-3.708 -1.708,-8.043 -5.864,-8.136c-24.97,-0.19 -49.941,-0.001 -74.911,-0.001Z" style="fill:url(#_Radial3);"/><path d="M402.417,60.12c8.51,0.19 15.595,9.172 12.901,17.9c-8.721,26.843 -17.7,53.602 -26.775,80.328c-1.864,5.327 -7.067,9.183 -12.861,9.27c-25.925,0.129 -51.85,0 -77.774,0c-8.512,-0.065 -15.796,-8.949 -13.12,-17.82c8.543,-26.839 17.338,-53.599 26.218,-80.328c1.843,-5.372 7.138,-9.264 12.888,-9.351c26.174,-0.13 52.349,-0.198 78.523,0.001Z" style="fill:url(#_Radial4);"/><path d="M541.723,60.12c8.517,0.19 15.597,9.166 12.901,17.9c-8.721,26.842 -17.722,53.594 -26.774,80.327c-1.856,5.302 -7.068,9.184 -12.862,9.271c-25.925,0.129 -51.85,0 -77.774,0c-8.58,-0.065 -15.749,-9.096 -13.12,-17.819c8.543,-26.84 17.338,-53.599 26.218,-80.329c1.837,-5.361 7.065,-9.263 12.888,-9.351c26.174,-0.13 52.349,-0.198 78.523,0.001Z" style="fill:url(#_Radial5);"/><path d="M681.029,60.12c8.492,0.19 15.592,9.164 12.901,17.9c-8.737,26.837 -17.722,53.594 -26.774,80.327c-1.86,5.314 -7.068,9.184 -12.862,9.271c-25.925,0.129 -51.85,0 -77.774,0c-8.57,-0.065 -15.748,-9.101 -13.12,-17.819c8.543,-26.84 17.36,-53.591 26.218,-80.329c1.837,-5.349 7.053,-9.263 12.888,-9.351c26.174,-0.13 52.349,-0.198 78.523,0.001Z" style="fill:url(#_Radial6);"/><path d="M602.655,67.618c-2.593,0.013 -5.047,1.752 -5.91,4.19c-9.138,26.599 -17.651,53.41 -26.181,80.21c-1.112,3.69 1.736,8.007 5.876,8.099c25.947,0.198 51.897,0.389 77.842,0c2.529,-0.063 4.899,-1.766 5.761,-4.153c9.308,-26.601 18.013,-53.411 26.737,-80.209c1.135,-3.683 -1.708,-8.043 -5.864,-8.136c-26.086,-0.198 -52.174,-0.001 -78.261,-0.001Z" style="fill:url(#_Radial7);"/><path d="M463.349,67.618c-2.605,0.013 -5.08,1.766 -5.931,4.25c-8.86,26.671 -17.636,53.37 -26.16,80.15c-1.107,3.675 1.737,8.007 5.876,8.099c25.947,0.198 51.897,0.389 77.842,0c2.551,-0.064 4.939,-1.803 5.782,-4.212c9.032,-26.674 18.014,-53.366 26.716,-80.15c1.138,-3.685 -1.708,-8.043 -5.864,-8.136c-26.086,-0.198 -52.174,-0.001 -78.261,-0.001Z" style="fill:url(#_Radial8);"/><path d="M324.043,67.618c-2.605,0.013 -5.078,1.765 -5.931,4.251c-8.86,26.67 -17.636,53.37 -26.16,80.15c-1.11,3.678 1.737,8.006 5.876,8.098c25.947,0.198 51.897,0.389 77.842,0c2.547,-0.064 4.939,-1.803 5.782,-4.213c9.055,-26.666 18.014,-53.366 26.716,-80.149c1.136,-3.681 -1.708,-8.043 -5.864,-8.136c-26.086,-0.198 -52.174,-0.001 -78.261,-0.001Z" style="fill:url(#_Radial9);"/><defs><radialGradient id="_Radial1" cx="0" cy="0" r="1" gradientUnits="userSpaceOnUse" gradientTransform="matrix(-778.218,417.58,-220,-410,699.604,84.9304)"><stop offset="0" style="stop-color:#00aeef;stop-opacity:1"/><stop offset="1" style="stop-color:#4c68be;stop-opacity:1"/></radialGradient><radialGradient id="_Radial2" cx="0" cy="0" r="1" gradientUnits="userSpaceOnUse" gradientTransform="matrix(-890.158,371.095,-195.51,-468.975,652.014,113.835)"><stop offset="0" style="stop-color:#0ea1e6;stop-opacity:1"/><stop offset="1" style="stop-color:#5168b1;stop-opacity:1"/></radialGradient><radialGradient id="_Radial3" cx="0" cy="0" r="1" gradientUnits="userSpaceOnUse" gradientTransform="matrix(-890.158,371.095,-195.51,-468.975,652.014,113.835)"><stop offset="0" style="stop-color:#0ea1e6;stop-opacity:1"/><stop offset="1" style="stop-color:#5168b1;stop-opacity:1"/></radialGradient><radialGradient id="_Radial4" cx="0" cy="0" r="1" gradientUnits="userSpaceOnUse" gradientTransform="matrix(-890.158,371.095,-195.51,-468.975,652.014,113.835)"><stop offset="0" style="stop-color:#0ea1e6;stop-opacity:1"/><stop offset="1" style="stop-color:#5168b1;stop-opacity:1"/></radialGradient><radialGradient id="_Radial5" cx="0" cy="0" r="1" gradientUnits="userSpaceOnUse" gradientTransform="matrix(-890.158,371.095,-195.51,-468.975,652.014,113.835)"><stop offset="0" style="stop-color:#0ea1e6;stop-opacity:1"/><stop offset="1" style="stop-color:#5168b1;stop-opacity:1"/></radialGradient><radialGradient id="_Radial6" cx="0" cy="0" r="1" gradientUnits="userSpaceOnUse" gradientTransform="matrix(-890.158,371.095,-195.51,-468.975,652.014,113.835)"><stop offset="0" style="stop-color:#0ea1e6;stop-opacity:1"/><stop offset="1" style="stop-color:#5168b1;stop-opacity:1"/></radialGradient><radialGradient id="_Radial7" cx="0" cy="0" r="1" gradientUnits="userSpaceOnUse" gradientTransform="matrix(-890.158,371.095,-195.51,-468.975,652.014,113.835)"><stop offset="0" style="stop-color:#0ea1e6;stop-opacity:1"/><stop offset="1" style="stop-color:#5168b1;stop-opacity:1"/></radialGradient><radialGradient id="_Radial8" cx="0" cy="0" r="1" gradientUnits="userSpaceOnUse" gradientTransform="matrix(-890.158,371.095,-195.51,-468.975,652.014,113.835)"><stop offset="0" style="stop-color:#0ea1e6;stop-opacity:1"/><stop offset="1" style="stop-color:#5168b1;stop-opacity:1"/></radialGradient><radialGradient id="_Radial9" cx="0" cy="0" r="1" gradientUnits="userSpaceOnUse" gradientTransform="matrix(-890.158,371.095,-195.51,-468.975,652.014,113.835)"><stop offset="0" style="stop-color:#0ea1e6;stop-opacity:1"/><stop offset="1" style="stop-color:#5168b1;stop-opacity:1"/></radialGradient></defs></svg>